<svg xmlns="http://www.w3.org/2000/svg" viewBox="0 0 1000 1000" xml:space="preserve"><switch><g><circle fill="#382B73" cx="500" cy="500" r="398"/><circle fill="#473080" cx="500" cy="500" r="344.3"/><path fill="#382B73" d="M728.9 679.1 667 361h-6.6v-.2c0-18-14.6-32.6-32.6-32.6-9.4 0-17.8 4-23.7 10.3-5.9-6.3-14.4-10.3-23.7-10.3-9.4 0-17.8 4-23.7 10.3-5.9-6.3-14.4-10.3-23.7-10.3-9.4 0-17.8 4-23.7 10.3-5.9-6.3-14.4-10.3-23.7-10.3-9.4 0-17.8 4-23.7 10.3-5.9-6.3-14.4-10.3-23.7-10.3-9.4 0-17.8 4-23.7 10.3-5.9-6.3-14.4-10.3-23.7-10.3-18 0-32.6 14.6-32.6 32.6H376c0-1 .1-1.9.3-2.8 0-.2.1-.4.1-.6.4-1.8 1.1-3.4 2.1-4.9.5-.7 1-1.4 1.6-2l.2-.2c2.6-2.6 6.1-4.2 10-4.3H392.2c.3 0 .5.1.8.1.2 0 .5.1.7.1.9.2 1.8.5 2.7.8h.1l.6.3c.7.3 1.3.7 1.9 1.1.3.2.5.4.7.6.1.1.3.2.4.3l.6.6c.1.1.3.2.4.4l.2.2c1.6 1.6 2.8 3.6 3.5 5.9 0 .1.1.3.1.4.4 1.3.6 2.6.6 4v.2h-72.6l.4.6-61.8 317.5 5.3 9.8h124.3v.3h318.1l9.7-10.1zm-306-318.3h.1c0-1 .1-1.9.3-2.8 0-.2.1-.4.1-.6.4-1.8 1.1-3.4 2.1-4.9.5-.7 1-1.4 1.6-2l.2-.2c2.6-2.6 6.1-4.2 10-4.3H439.2c.3 0 .5.1.8.1.2 0 .5.1.7.1.9.2 1.8.5 2.7.8h.1l.6.3c.7.3 1.3.7 1.9 1.1.3.2.5.4.7.6.1.1.3.2.4.3l.6.6c.1.1.3.2.4.4l.2.2c.9 1 1.7 2 2.4 3.2 0 .1.1.1.1.2.4.8.8 1.6 1 2.5 0 .1.1.3.1.4.4 1.3.6 2.6.6 4v.2h-29.7c.1-.1.1-.2.1-.2zm190.1 0c0-.5 0-1 .1-1.5.1-1.3.4-2.5.9-3.7.4-1.1.9-2.1 1.6-3.1.3-.4.5-.8.8-1.1.2-.2.4-.4.6-.7.1-.1.2-.3.3-.4 2.6-2.6 6.1-4.2 10-4.3h1.9c.3 0 .6.1.9.1.2 0 .4.1.6.1.9.2 1.8.5 2.7.8h.1c.3.1.5.2.8.4.2.1.4.2.5.3.2.1.3.2.5.3.2.1.5.3.7.4.7.5 1.4 1 2 1.6l.2.2.4.4.6.6c.1.1.1.2.2.2.5.7 1 1.4 1.4 2.1 0 .1.1.1.1.2.4.8.8 1.6 1 2.5 0 .1.1.3.1.4.4 1.3.6 2.6.6 4v.2h-29.7v-.2h.1zm-47.5 0c0-1 .1-1.9.3-2.8 0-.2.1-.4.1-.6.4-1.8 1.1-3.4 2.1-4.9.5-.7 1-1.4 1.6-2l.2-.2c2.6-2.6 6.1-4.2 10-4.3H581.7c.3 0 .5.1.8.1.2 0 .5.1.7.1.9.2 1.8.5 2.7.8h.1l.6.3c.7.3 1.3.7 1.9 1.1.3.2.5.4.7.6.1.1.3.2.4.3l.6.6c.1.1.3.2.4.4l.2.2c.9 1 1.7 2 2.4 3.2 0 .1.1.1.1.2.4.8.8 1.6 1 2.5 0 .1.1.3.1.4.4 1.3.6 2.6.6 4v.2h-29.7v-.2h.2zm-47.5 0c0-1 .1-1.9.3-2.8 0-.2.1-.4.1-.6.4-1.8 1.1-3.4 2.1-4.9.5-.7 1-1.4 1.6-2l.2-.2c2.6-2.6 6.1-4.2 10-4.3H534.2c.3 0 .5.1.8.1.2 0 .5.1.7.1.9.2 1.8.5 2.7.8h.1l.6.3c.7.3 1.3.7 1.9 1.1.3.2.5.4.7.6.1.1.3.2.4.3l.6.6c.1.1.3.2.4.4l.2.2c1.6 1.6 2.8 3.6 3.5 5.9 0 .1.1.3.1.4.4 1.3.6 2.6.6 4v.2h-29.7v-.2h.2zm-47.5 0c0-.5 0-1 .1-1.5.1-1.3.4-2.5.9-3.7.4-1.1.9-2.1 1.6-3.1.3-.4.5-.8.8-1.1.2-.2.4-.4.6-.7.1-.1.2-.3.3-.4 2.6-2.6 6.1-4.2 10-4.3h1.9c.3 0 .6.1.9.1.2 0 .4.1.6.1.9.2 1.8.5 2.7.8h.1c.3.1.5.2.8.4.2.1.4.2.5.3.2.1.3.2.5.3.2.1.5.3.7.4.7.5 1.4 1 2 1.6l.2.2.4.4.6.6c.1.1.1.2.2.2.5.7 1 1.4 1.4 2.1 0 .1.1.1.1.2.4.8.8 1.6 1 2.5 0 .1.1.3.1.4.4 1.3.6 2.6.6 4v.2h-29.7v-.2h.1z"/><g><path fill="#D1D3D4" d="M651.2 340.9H333.1l-62 318.2 5.3 9.7h318.1l61.9-318.1z"/><path fill="#FFF" d="m338.3 350.7-5.7-9.8h318.6l5.2 9.8z"/><path fill="#BCBEC0" d="M276.4 668.8h318.1l61.9-318.1H338.3z"/><path fill="#FFF" d="M728.9 659.1H410.7l-61.9-318.2h318.1z"/><path fill="#E6E7E8" d="m728.9 659.1-62-318.2H348.8l-10 10 61.9 318.2h318.2z"/><path fill="#FFF" d="M728.9 659.1H410.7l-61.9-318.2h318.1z"/><ellipse fill="#E7AD27" cx="392.2" cy="364.5" rx="11.9" ry="12.5"/><ellipse fill="#E7AD27" cx="439.7" cy="364.5" rx="11.9" ry="12.5"/><ellipse fill="#E7AD27" cx="487.2" cy="364.5" rx="11.9" ry="12.5"/><ellipse fill="#E7AD27" cx="534.7" cy="364.5" rx="11.9" ry="12.5"/><ellipse fill="#E7AD27" cx="582.1" cy="364.5" rx="11.9" ry="12.5"/><ellipse fill="#E7AD27" cx="629.6" cy="364.5" rx="11.9" ry="12.5"/><path fill="#FEDE3A" d="M627.8 308.2c-18 0-32.6 14.6-32.6 32.6H613c0-8.2 6.6-14.8 14.8-14.8 8.1 0 14.8 6.6 14.8 14.8 0 8.2-6.6 14.8-14.8 14.8-4.8 0-7.2 4.4-7.2 8.9 0 4.4 2.4 8.9 7.2 8.9 18 0 32.6-14.6 32.6-32.6-.1-18-14.7-32.6-32.6-32.6z"/><path fill="#E7AD27" d="M627.8 317.1c-13.1 0-23.7 10.6-23.7 23.7h8.9c0-8.2 6.6-14.8 14.8-14.8 8.1 0 14.8 6.6 14.8 14.8 0 8.2-6.6 14.8-14.8 14.8-4.8 0-7.2 4.4-7.2 8.9h7.2c13.1 0 23.7-10.6 23.7-23.7s-10.7-23.7-23.7-23.7z"/><path fill="#FEDE3A" d="M580.3 308.2c-18 0-32.6 14.6-32.6 32.6h17.8c0-8.2 6.6-14.8 14.8-14.8 8.1 0 14.8 6.6 14.8 14.8 0 8.2-6.6 14.8-14.8 14.8-4.8 0-7.2 4.4-7.2 8.9 0 4.4 2.4 8.9 7.2 8.9 18 0 32.6-14.6 32.6-32.6s-14.7-32.6-32.6-32.6z"/><path fill="#E7AD27" d="M580.3 317.1c-13.1 0-23.7 10.6-23.7 23.7h8.9c0-8.2 6.6-14.8 14.8-14.8 8.1 0 14.8 6.6 14.8 14.8 0 8.2-6.6 14.8-14.8 14.8-4.8 0-7.2 4.4-7.2 8.9h7.2c13.1 0 23.7-10.6 23.7-23.7s-10.6-23.7-23.7-23.7z"/><path fill="#FEDE3A" d="M532.8 308.2c-18 0-32.6 14.6-32.6 32.6H518c0-8.2 6.6-14.8 14.8-14.8 8.1 0 14.8 6.6 14.8 14.8 0 8.2-6.6 14.8-14.8 14.8-4.8 0-7.2 4.4-7.2 8.9 0 4.4 2.4 8.9 7.2 8.9 18 0 32.6-14.6 32.6-32.6s-14.6-32.6-32.6-32.6z"/><path fill="#E7AD27" d="M532.8 317.1c-13.1 0-23.7 10.6-23.7 23.7h8.9c0-8.2 6.6-14.8 14.8-14.8 8.1 0 14.8 6.6 14.8 14.8 0 8.2-6.6 14.8-14.8 14.8-4.8 0-7.2 4.4-7.2 8.9h7.2c13.1 0 23.7-10.6 23.7-23.7s-10.6-23.7-23.7-23.7z"/><g><path fill="#FEDE3A" d="M485.3 308.2c-18 0-32.6 14.6-32.6 32.6h17.8c0-8.2 6.6-14.8 14.8-14.8 8.1 0 14.8 6.6 14.8 14.8 0 8.2-6.6 14.8-14.8 14.8-4.8 0-7.2 4.4-7.2 8.9 0 4.4 2.4 8.9 7.2 8.9 18 0 32.6-14.6 32.6-32.6s-14.6-32.6-32.6-32.6z"/><path fill="#E7AD27" d="M485.3 317.1c-13.1 0-23.7 10.6-23.7 23.7h8.9c0-8.2 6.6-14.8 14.8-14.8 8.1 0 14.8 6.6 14.8 14.8 0 8.2-6.6 14.8-14.8 14.8-4.8 0-7.2 4.4-7.2 8.9h7.2c13.1 0 23.7-10.6 23.7-23.7s-10.6-23.7-23.7-23.7z"/></g><g><path fill="#FEDE3A" d="M437.9 308.2c-18 0-32.6 14.6-32.6 32.6h17.8c0-8.2 6.6-14.8 14.8-14.8 8.1 0 14.8 6.6 14.8 14.8 0 8.2-6.6 14.8-14.8 14.8-4.8 0-7.2 4.4-7.2 8.9 0 4.4 2.4 8.9 7.2 8.9 18 0 32.6-14.6 32.6-32.6-.1-18-14.7-32.6-32.6-32.6z"/><path fill="#E7AD27" d="M437.9 317.1c-13.1 0-23.7 10.6-23.7 23.7h8.9c0-8.2 6.6-14.8 14.8-14.8 8.1 0 14.8 6.6 14.8 14.8 0 8.2-6.6 14.8-14.8 14.8-4.8 0-7.2 4.4-7.2 8.9h7.2c13.1 0 23.7-10.6 23.7-23.7-.1-13.1-10.7-23.7-23.7-23.7z"/></g><g><path fill="#FEDE3A" d="M390.4 308.2c-18 0-32.6 14.6-32.6 32.6h17.8c0-8.2 6.6-14.8 14.8-14.8 8.1 0 14.8 6.6 14.8 14.8 0 8.2-6.6 14.8-14.8 14.8-4.8 0-7.2 4.4-7.2 8.9 0 4.4 2.4 8.9 7.2 8.9 18 0 32.6-14.6 32.6-32.6-.1-18-14.7-32.6-32.6-32.6z"/><path fill="#E7AD27" d="M390.4 317.1c-13.1 0-23.7 10.6-23.7 23.7h8.9c0-8.2 6.6-14.8 14.8-14.8 8.1 0 14.8 6.6 14.8 14.8 0 8.2-6.6 14.8-14.8 14.8-4.8 0-7.2 4.4-7.2 8.9h7.2c13.1 0 23.7-10.6 23.7-23.7s-10.6-23.7-23.7-23.7z"/></g><g fill="#E6E7E8"><path d="M549.8 455.7c2-1.9 3-4.7 2.4-7.6l-6.8-34.7c-.8-3.9-4.2-6.8-8.2-6.8h-34.3c-2.3 0-4.4.9-5.9 2.4l-3.9 3.9c-2 1.9-3 4.7-2.4 7.6l6.8 34.7c.8 3.9 4.2 6.8 8.2 6.8H540c2.3 0 4.4-.9 5.9-2.4l3.9-3.9zM508.4 491.3c-2 1.9-3 4.7-2.4 7.6l6.8 34.7c.8 3.9 4.2 6.8 8.2 6.8h34.3c2.3 0 4.4-.9 5.9-2.4l3.9-3.9c2-1.9 3-4.7 2.4-7.6l-6.8-34.7c-.8-3.9-4.2-6.8-8.2-6.8h-34.3c-2.3 0-4.4.9-5.9 2.4l-3.9 3.9zM409.8 412.9c-2 1.9-3 4.7-2.4 7.6l6.8 34.7c.8 3.9 4.2 6.8 8.2 6.8h34.3c2.3 0 4.4-.9 5.9-2.4l3.9-3.9c2-1.9 3-4.7 2.4-7.6l-6.8-34.7c-.8-3.9-4.2-6.8-8.2-6.8h-34.3c-2.3 0-4.4.9-5.9 2.4l-3.9 3.9zM425.1 491.3c-2 1.9-3 4.7-2.4 7.6l6.8 34.7c.8 3.9 4.2 6.8 8.2 6.8H472c2.3 0 4.4-.9 5.9-2.4l3.9-3.9c2-1.9 3-4.7 2.4-7.6l-6.8-34.7c-.8-3.9-4.2-6.8-8.2-6.8h-34.3c-2.3 0-4.4.9-5.9 2.4l-3.9 3.9zM633.2 455.7c2-1.9 3-4.7 2.4-7.6l-6.8-34.7c-.8-3.9-4.2-6.8-8.2-6.8h-34.3c-2.3 0-4.4.9-5.9 2.4l-3.9 3.9c-2 1.9-3 4.7-2.4 7.6l6.8 34.7c.8 3.9 4.2 6.8 8.2 6.8h34.3c2.3 0 4.4-.9 5.9-2.4l3.9-3.9zM591.7 491.3c-2 1.9-3 4.7-2.4 7.6l6.8 34.7c.8 3.9 4.2 6.8 8.2 6.8h34.3c2.3 0 4.4-.9 5.9-2.4l3.9-3.9c2-1.9 3-4.7 2.4-7.6l-6.8-34.7c-.8-3.9-4.2-6.8-8.2-6.8h-34.3c-2.3 0-4.4.9-5.9 2.4l-3.9 3.9zM580.5 612.5c2-1.9 3-4.7 2.4-7.6l-6.8-34.7c-.8-3.9-4.2-6.8-8.2-6.8h-34.3c-2.3 0-4.4.9-5.9 2.4l-3.9 3.9c-2 1.9-3 4.7-2.4 7.6l6.8 34.7c.8 3.9 4.2 6.8 8.2 6.8h34.3c2.3 0 4.4-.9 5.9-2.4l3.9-3.9zM497.1 612.5c2-1.9 3-4.7 2.4-7.6l-6.8-34.7c-.8-3.9-4.2-6.8-8.2-6.8h-34.3c-2.3 0-4.4.9-5.9 2.4l-3.9 3.9c-2 1.9-3 4.7-2.4 7.6l6.8 34.7c.8 3.9 4.2 6.8 8.2 6.8h34.3c2.3 0 4.4-.9 5.9-2.4l3.9-3.9zM663.8 612.5c2-1.9 3-4.7 2.4-7.6l-6.8-34.7c-.8-3.9-4.2-6.8-8.2-6.8h-34.3c-2.3 0-4.4.9-5.9 2.4l-3.9 3.9c-2 1.9-3 4.7-2.4 7.6l6.8 34.7c.8 3.9 4.2 6.8 8.2 6.8H654c2.3 0 4.4-.9 5.9-2.4l3.9-3.9z"/></g><g fill="#F7CB15"><path d="M553.8 451.7c2-1.9 3-4.7 2.4-7.6l-6.8-34.7c-.8-3.9-4.2-6.8-8.2-6.8h-34.3c-2.3 0-4.4.9-5.9 2.4l-3.9 3.9c-2 1.9-3 4.7-2.4 7.6l6.8 34.7c.8 3.9 4.2 6.8 8.2 6.8H544c2.3 0 4.4-.9 5.9-2.4l3.9-3.9zM512.4 487.3c-2 1.9-3 4.7-2.4 7.6l6.8 34.7c.8 3.9 4.2 6.8 8.2 6.8h34.3c2.3 0 4.4-.9 5.9-2.4l3.9-3.9c2-1.9 3-4.7 2.4-7.6l-6.8-34.7c-.8-3.9-4.2-6.8-8.2-6.8h-34.3c-2.3 0-4.4.9-5.9 2.4l-3.9 3.9zM413.8 408.9c-2 1.9-3 4.7-2.4 7.6l6.8 34.7c.8 3.9 4.2 6.8 8.2 6.8h34.3c2.3 0 4.4-.9 5.9-2.4l3.9-3.9c2-1.9 3-4.7 2.4-7.6l-6.8-34.7c-.8-3.9-4.2-6.8-8.2-6.8h-34.3c-2.3 0-4.4.9-5.9 2.4l-3.9 3.9zM429.1 487.3c-2 1.9-3 4.7-2.4 7.6l6.8 34.7c.8 3.9 4.2 6.8 8.2 6.8H476c2.3 0 4.4-.9 5.9-2.4l3.9-3.9c2-1.9 3-4.7 2.4-7.6l-6.8-34.7c-.8-3.9-4.2-6.8-8.2-6.8h-34.3c-2.3 0-4.4.9-5.9 2.4l-3.9 3.9zM637.2 451.7c2-1.9 3-4.7 2.4-7.6l-6.8-34.7c-.8-3.9-4.2-6.8-8.2-6.8h-34.3c-2.3 0-4.4.9-5.9 2.4l-3.9 3.9c-2 1.9-3 4.7-2.4 7.6l6.8 34.7c.8 3.9 4.2 6.8 8.2 6.8h34.3c2.3 0 4.4-.9 5.9-2.4l3.9-3.9zM595.7 487.3c-2 1.9-3 4.7-2.4 7.6l6.8 34.7c.8 3.9 4.2 6.8 8.2 6.8h34.3c2.3 0 4.4-.9 5.9-2.4l3.9-3.9c2-1.9 3-4.7 2.4-7.6l-6.8-34.7c-.8-3.9-4.2-6.8-8.2-6.8h-34.3c-2.3 0-4.4.9-5.9 2.4l-3.9 3.9zM584.5 608.5c2-1.9 3-4.7 2.4-7.6l-6.8-34.7c-.8-3.9-4.2-6.8-8.2-6.8h-34.3c-2.3 0-4.4.9-5.9 2.4l-3.9 3.9c-2 1.9-3 4.7-2.4 7.6l6.8 34.7c.8 3.9 4.2 6.8 8.2 6.8h34.3c2.3 0 4.4-.9 5.9-2.4l3.9-3.9zM501.1 608.5c2-1.9 3-4.7 2.4-7.6l-6.8-34.7c-.8-3.9-4.2-6.8-8.2-6.8h-34.3c-2.3 0-4.4.9-5.9 2.4l-3.9 3.9c-2 1.9-3 4.7-2.4 7.6l6.8 34.7c.8 3.9 4.2 6.8 8.2 6.8h34.3c2.3 0 4.4-.9 5.9-2.4l3.9-3.9zM667.8 608.5c2-1.9 3-4.7 2.4-7.6l-6.8-34.7c-.8-3.9-4.2-6.8-8.2-6.8h-34.3c-2.3 0-4.4.9-5.9 2.4l-3.9 3.9c-2 1.9-3 4.7-2.4 7.6l6.8 34.7c.8 3.9 4.2 6.8 8.2 6.8H658c2.3 0 4.4-.9 5.9-2.4l3.9-3.9z"/></g><path fill="#FEDE3A" d="m670.2 600.8-6.8-34.7c-.8-3.9-4.2-6.8-8.2-6.8h-34.3c-5.3 0-9.2 4.8-8.2 10l6.8 34.7c.8 3.9 4.2 6.8 8.2 6.8H662c5.2 0 9.2-4.8 8.2-10zm-15.3-78.4-6.8-34.7c-.8-3.9-4.2-6.8-8.2-6.8h-34.3c-5.3 0-9.2 4.8-8.2 10l6.8 34.7c.8 3.9 4.2 6.8 8.2 6.8h34.3c5.2 0 9.2-4.8 8.2-10zm-15.3-78.3-6.8-34.7c-.8-3.9-4.2-6.8-8.2-6.8h-34.3c-5.3 0-9.2 4.8-8.2 10l6.8 34.7c.8 3.9 4.2 6.8 8.2 6.8h34.3c5.2 0 9.2-4.9 8.2-10zm-59.5 122.1c-.8-3.9-4.2-6.8-8.2-6.8h-34.3c-5.3 0-9.2 4.8-8.2 10l6.8 34.7c.8 3.9 4.2 6.8 8.2 6.8h34.3c5.3 0 9.2-4.8 8.2-10l-6.8-34.7zM464.7 454.1h-34.3c-4 0-7.5-2.8-8.2-6.8l-6.8-34.7c-1-5.2 3-10 8.2-10h34.3c4 0 7.5 2.8 8.2 6.8l6.8 34.7c1 5.1-2.9 10-8.2 10zm91.5-10-6.8-34.7c-.8-3.9-4.2-6.8-8.2-6.8h-34.3c-5.3 0-9.2 4.8-8.2 10l6.8 34.7c.8 3.9 4.2 6.8 8.2 6.8H548c5.3 0 9.3-4.9 8.2-10zm-68 78.3-6.8-34.7c-.8-3.9-4.2-6.8-8.2-6.8h-34.3c-5.3 0-9.2 4.8-8.2 10l6.8 34.7c.8 3.9 4.2 6.8 8.2 6.8H480c5.3 0 9.2-4.8 8.2-10zm83.4 0-6.8-34.7c-.8-3.9-4.2-6.8-8.2-6.8h-34.3c-5.3 0-9.2 4.8-8.2 10l6.8 34.7c.8 3.9 4.2 6.8 8.2 6.8h34.3c5.2 0 9.2-4.8 8.2-10zm-74.8 43.8c-.8-3.9-4.2-6.8-8.2-6.8h-34.3c-5.3 0-9.2 4.8-8.2 10l6.8 34.7c.8 3.9 4.2 6.8 8.2 6.8h34.3c5.3 0 9.2-4.8 8.2-10l-6.8-34.7z"/><path fill="#BCBEC0" d="m410.7 659.1-10 10h318.2l10-10z"/></g></g></switch></svg>